<!--?xml version="1.0" standalone="no"?-->
              <svg id="sw-js-blob-svg" viewBox="0 0 100 100" xmlns="http://www.w3.org/2000/svg" version="1.1">
                    <defs> 
                        <linearGradient id="sw-gradient" x1="0" x2="1" y1="1" y2="0">
                            <stop id="stop1" stop-color="rgba(55, 127.052, 248, 1)" offset="0%"></stop>
                            <stop id="stop2" stop-color="rgba(255, 200.418, 38.961, 1)" offset="100%"></stop>
                        </linearGradient>
                    </defs>
                <path fill="url(#sw-gradient)" d="M19,-28.9C23.8,-22.6,26.4,-16,29.5,-9C32.6,-2,36.3,5.5,36.1,13.5C35.9,21.5,31.9,30,25.3,32.7C18.6,35.4,9.3,32.3,2.2,29.3C-4.9,26.3,-9.8,23.3,-16.6,20.6C-23.3,17.9,-31.9,15.5,-34,10.7C-36.1,5.8,-31.7,-1.5,-28.8,-9.1C-25.9,-16.6,-24.6,-24.3,-20.1,-30.7C-15.5,-37,-7.8,-42,-0.3,-41.5C7.1,-41.1,14.2,-35.1,19,-28.9Z" width="100%" height="100%" transform="translate(50 50)" stroke-width="0" style="transition: all 0.3s ease 0s;" stroke="url(#sw-gradient)"></path>
              </svg>