<!--?xml version="1.0" standalone="no"?-->
              <svg id="sw-js-blob-svg" viewBox="0 0 100 100" xmlns="http://www.w3.org/2000/svg" version="1.1">
                    <defs> 
                        <linearGradient id="sw-gradient" x1="0" x2="1" y1="1" y2="0">
                            <stop id="stop1" stop-color="rgba(248, 117, 55, 1)" offset="0%"></stop>
                            <stop id="stop2" stop-color="rgba(251, 168, 31, 1)" offset="100%"></stop>
                        </linearGradient>
                    </defs>
                <path fill="url(#sw-gradient)" d="M26.3,-30.6C33.9,-24.9,39.8,-16.5,41.4,-7.3C43,1.9,40.3,11.8,34.6,18.4C28.9,25,20.2,28.4,11.7,31C3.2,33.5,-5.1,35.3,-11.6,32.6C-18.1,30,-22.7,22.8,-25.8,15.7C-29,8.6,-30.7,1.4,-30.8,-6.7C-30.8,-14.7,-29.1,-23.7,-23.7,-29.8C-18.3,-35.9,-9.2,-39,0.1,-39.1C9.3,-39.2,18.7,-36.3,26.3,-30.6Z" width="100%" height="100%" transform="translate(50 50)" stroke-width="0" style="transition: all 0.3s ease 0s;"></path>
              </svg>