<svg id="Layer_2" xmlns="http://www.w3.org/2000/svg" viewBox="0 0 437.99 89.96"><defs><style>.cls-1{fill:#33bc77;}</style></defs><g id="Layer_1-2"><g><g id="a"><path class="cls-1" d="M4.24,24.27l-.28,.72,19.69,8.44,.28-.72L4.24,24.27Z"/><path class="cls-1" d="M21.67,11.15l-.53,.54,19.11,20.62,.53-.54L21.67,11.15Z"/><path class="cls-1" d="M58.41,12.83l-17.92,1.2,.05,.78,17.93-1.2-.06-.78Z"/><path class="cls-1" d="M31.56,2.28l-.57,.5,9.25,11.89,.57-.5L31.56,2.28Z"/><path class="cls-1" d="M49.14,2.28l-8.92,11.89,.58,.48L49.72,2.76l-.58-.48Z"/><path class="cls-1" d="M4.46,24.6l-.74,.06,1.73,23.31,.74-.06-1.73-23.31Z"/><path class="cls-1" d="M23.56,32.77L5.59,47.64l.46,.61,17.97-14.86-.46-.61Z"/><path class="cls-1" d="M40.29,31.73l-18.11,15.02,.46,.61,18.11-15.02-.46-.61Z"/><path class="cls-1" d="M22.38,46.67l-16.59,.89,.04,.78,16.59-.88-.04-.78Z"/><path class="cls-1" d="M21.77,11.38l-.74,.09,2.38,21.65,.74-.09-2.38-21.65Z"/><path class="cls-1" d="M21.11,11.22L3.12,24.35l.42,.64L21.53,11.85l-.42-.64Z"/><path class="cls-1" d="M31.03,2.22l-9.87,8.9,.48,.59L31.51,2.81l-.48-.59Z"/><path class="cls-1" d="M40.25,14.14l-16.73,18.65,.54,.53L40.79,14.67l-.54-.53Z"/><path class="cls-1" d="M40.62,31.66l-.21,.74,16.6,5.19,.21-.74-16.6-5.19Z"/><path class="cls-1" d="M58.07,13.2l-1.32,24.01,.74,.04,1.32-24.01-.74-.04Z"/><path class="cls-1" d="M74.89,22.54l-17.99,14.39,.45,.62,17.99-14.39-.45-.62Z"/><path class="cls-1" d="M57.23,36.86l-.25,.74,20.38,7.23,.25-.74-20.38-7.23Z"/><path class="cls-1" d="M75.48,22.79l-.74,.09,2.4,21.61,.74-.09-2.4-21.61Z"/><path class="cls-1" d="M58.75,13.01l-.62,.42,19.08,31.23,.62-.42L58.75,13.01Z"/><path class="cls-1" d="M49.71,2.26l-.55,.51,9.01,10.7,.55-.51L49.71,2.26Z"/><path class="cls-1" d="M58.61,12.87l-.36,.68,16.67,9.62,.36-.68-16.67-9.62Z"/><path class="cls-1" d="M49.43,2.13H31.27v.78h18.16v-.78Z"/><path class="cls-1" d="M40.82,31.81l-.6,.45,16.6,24.89,.6-.45-16.6-24.89Z"/><path class="cls-1" d="M57.45,37.05l-.66,.34,10.39,22.25,.66-.34-10.39-22.25Z"/><path class="cls-1" d="M77.2,44.24l-9.99,15.02,.6,.44,9.98-15.02-.59-.44Z"/><path class="cls-1" d="M57.48,37.23h-.74v19.7h.74v-19.7Z"/><path class="cls-1" d="M40.81,14.19l-.59,.47,16.6,22.81,.59-.47L40.81,14.19Z"/><path class="cls-1" d="M40.42,14.05L3.34,24.25l.19,.74L40.61,14.8l-.19-.75Z"/><path class="cls-1" d="M31.4,2.15l-.25,.73,27.17,10.7,.25-.73L31.4,2.15Z"/><path class="cls-1" d="M49.47,2.18L21.37,11.1l.21,.74L49.69,2.92l-.21-.74Z"/><path class="cls-1" d="M23.42,33.04l-1.38,13.98,.74,.08,1.38-13.98-.74-.08Z"/><path class="cls-1" d="M57.2,56.54l-.17,.76,10.39,2.55,.17-.74-10.39-2.56Z"/><path class="cls-1" d="M33.65,89.2h12.43l-1.49-27.18,12.51-4.36-14.74-1.5-1.86-27.23-4.09,21.5-15.02-4.35,14.49,10.06-2.24,33.04Z"/><path class="cls-1" d="M40.52,36.35c2.38,.12,4.4-1.71,4.52-4.09s-1.71-4.4-4.09-4.52c-2.38-.12-4.4,1.71-4.52,4.09,0,.07,0,.14,0,.21-.05,2.32,1.78,4.24,4.1,4.31Z"/><path class="cls-1" d="M40.52,18.73c2.32-.06,4.15-1.99,4.1-4.31,.11-2.26-1.63-4.19-3.9-4.3-2.26-.11-4.19,1.63-4.3,3.9,0,.13,0,.27,0,.4-.05,2.32,1.78,4.24,4.1,4.31Z"/><path class="cls-1" d="M4.1,28.94c2.38-.11,4.21-2.13,4.1-4.51-.11-2.22-1.88-3.99-4.1-4.1C1.73,20.44-.11,22.46,0,24.84c.11,2.22,1.88,3.99,4.1,4.1Z"/><path class="cls-1" d="M77.5,48.76c2.38,.12,4.4-1.72,4.52-4.09,.12-2.38-1.72-4.4-4.09-4.52-2.38-.12-4.4,1.72-4.52,4.09,0,.07,0,.14,0,.21-.05,2.32,1.78,4.24,4.1,4.31Z"/><path class="cls-1" d="M58.44,17.52c2.32-.06,4.15-1.99,4.1-4.31,.11-2.26-1.63-4.19-3.9-4.3-2.26-.11-4.19,1.63-4.3,3.9,0,.13,0,.27,0,.4-.05,2.32,1.78,4.24,4.1,4.31Z"/><path class="cls-1" d="M22.41,49.56c1.38,.07,2.56-1,2.62-2.38,.07-1.38-1-2.56-2.38-2.62-1.38-.07-2.56,1-2.62,2.38,0,.04,0,.08,0,.12-.03,1.35,1.03,2.47,2.38,2.5Z"/><path class="cls-1" d="M21.41,13.92c1.35-.04,2.41-1.16,2.38-2.5,.07-1.32-.93-2.44-2.25-2.52s-2.44,.93-2.52,2.25c0,.09,0,.18,0,.27-.03,1.35,1.03,2.47,2.38,2.5Z"/><path class="cls-1" d="M31.27,5.02c1.35-.03,2.42-1.15,2.38-2.5,.07-1.32-.93-2.44-2.25-2.52-1.32-.07-2.44,.93-2.52,2.25,0,.09,0,.18,0,.27-.03,1.35,1.03,2.47,2.38,2.5Z"/><path class="cls-1" d="M49.43,5.02c1.35-.03,2.42-1.15,2.38-2.5,.07-1.32-.93-2.44-2.25-2.52-1.32-.07-2.44,.93-2.52,2.25,0,.09,0,.18,0,.27-.03,1.35,1.03,2.47,2.38,2.5Z"/><path class="cls-1" d="M5.82,50.44c1.38-.06,2.45-1.23,2.39-2.61-.06-1.3-1.1-2.33-2.39-2.39-1.38,.06-2.45,1.23-2.39,2.61,.06,1.3,1.1,2.33,2.39,2.39Z"/><path class="cls-1" d="M23.79,35.99c1.61,.08,2.99-1.16,3.07-2.78,.08-1.61-1.16-2.99-2.78-3.07-1.61-.08-2.99,1.16-3.07,2.78,0,.05,0,.1,0,.15-.04,1.57,1.21,2.88,2.78,2.92Z"/><path class="cls-1" d="M57.12,39.74c1.39,.07,2.57-1,2.64-2.39,.07-1.39-1-2.57-2.39-2.64s-2.57,1-2.64,2.39c0,.04,0,.08,0,.12-.03,1.36,1.04,2.48,2.39,2.51Z"/><path class="cls-1" d="M75.11,25.35c1.39,.07,2.57-1,2.64-2.39,.07-1.39-1-2.57-2.39-2.64s-2.57,1-2.64,2.39c0,.04,0,.08,0,.12-.03,1.36,1.04,2.48,2.39,2.51Z"/><path class="cls-1" d="M57.12,58.7c.98,.05,1.82-.71,1.86-1.69,.05-.98-.71-1.82-1.69-1.86-.98-.05-1.82,.71-1.86,1.69,0,.03,0,.06,0,.09-.02,.96,.73,1.75,1.69,1.78,0,0,0,0,0,0Z"/><path class="cls-1" d="M67.51,62.02c1.41,.07,2.61-1.01,2.67-2.42s-1.01-2.61-2.42-2.67c-1.41-.07-2.61,1.01-2.67,2.42,0,.04,0,.08,0,.13-.03,1.37,1.05,2.51,2.43,2.55Z"/><path class="cls-1" d="M96.37,5.74h16.9c10.29,0,14.7,6.26,14.7,17.15,0,11.85-6.1,16.4-15.4,16.4h-5.75v26.84h-10.44V5.74Zm14.48,25.8c5.75,0,7.24-2.31,7.24-8.72s-.78-9.32-7.24-9.32h-4.04V31.54h4.04Z"/><path class="cls-1" d="M133.78,5.74h13.83c11.5,0,18.03,3.88,18.03,16.03,0,7.23-1.7,12.3-7.1,14.61l8.02,29.75h-10.49l-6.89-27.66h-4.98v27.66h-10.43V5.74Zm13.77,25.87c6.04,0,8.24-2.76,8.24-9.25,0-6.11-1.63-9.08-7.67-9.08h-3.91V31.61h3.35Z"/><path class="cls-1" d="M172.41,47.2V24.53c0-12.21,4.26-19.46,16.61-19.46s16.54,7.23,16.54,19.46v22.67c0,12.15-4.26,19.76-16.54,19.76s-16.61-7.53-16.61-19.76Zm22.51,2.6V22c0-5.07-.78-8.87-5.89-8.87s-5.96,3.8-5.96,8.87v27.82c0,5.01,.78,9.02,5.96,9.02,5.11,0,5.88-4.02,5.88-9.02v-.02Z"/><path class="cls-1" d="M213.3,5.74h23.64v7.6h-13.2V30.94h10.8v7.67h-10.8v27.52h-10.44V5.74Z"/><path class="cls-1" d="M242.9,5.74h10.37v60.4h-10.37V5.74Z"/><path class="cls-1" d="M262.13,5.74h10.44V58.61h13.99v7.52h-24.42V5.74Z"/><path class="cls-1" d="M292.03,5.74h24.15v7.75h-13.72V30.87h10.8v7.68h-10.8v20.07h13.85v7.52h-24.28V5.74Z"/><path class="cls-1" d="M330.22,10.14h-10.86V5.75h26.84v4.39h-10.58v56h-5.4V10.14Z"/><path class="cls-1" d="M352.51,5.74h13c10.73,0,14.27,5.82,14.27,15.35,0,6.86-1.7,12.75-7.95,14.17l8.8,30.87h-5.26l-8.45-29.65h-9.02v29.67h-5.4V5.74Zm12.71,26.54c7.1,0,9.3-3.73,9.3-11.18s-1.85-11.11-9.16-11.11h-7.45v22.29h7.31Z"/><path class="cls-1" d="M388.79,5.74h20.8v4.38h-15.34v22.67h12.5v4.17h-12.5v24.91h15.48v4.25h-20.94V5.74Z"/><path class="cls-1" d="M417.05,5.74h20.8v4.38h-15.33v22.67h12.5v4.17h-12.5v24.91h15.48v4.25h-20.95V5.74Z"/></g><g><path class="cls-1" d="M100.67,89.69l-3.71-12.78h1.94l2.69,9.67,2.69-9.66h1.95s2.69,9.66,2.69,9.66l2.69-9.67h1.95l-3.72,12.78h-1.85l-2.74-9.56-2.74,9.56h-1.85Z"/><path class="cls-1" d="M115.78,89.69v-12.78h8.17v1.75h-6.31v3.59h5.25v1.75h-5.25v3.95h6.31v1.75h-8.17Z"/><path class="cls-1" d="M126.81,89.69v-12.78h5.02c.81,0,1.49,.17,2.04,.5,.55,.33,.96,.76,1.24,1.28s.42,1.08,.42,1.66c0,.7-.17,1.31-.52,1.81-.35,.5-.81,.85-1.4,1.03l-.02-.44c.82,.2,1.44,.59,1.88,1.18s.66,1.26,.66,2.04-.15,1.4-.45,1.96c-.3,.56-.73,.99-1.31,1.3-.57,.31-1.26,.47-2.07,.47h-5.5Zm1.88-7.56h3.12c.34,0,.65-.07,.93-.21,.28-.14,.49-.34,.66-.6,.16-.26,.24-.58,.24-.95,0-.5-.17-.91-.5-1.22-.33-.32-.78-.48-1.33-.48h-3.12v3.47Zm0,5.8h3.34c.42,0,.8-.08,1.13-.24,.33-.16,.6-.39,.79-.69,.19-.3,.29-.66,.29-1.07,0-.38-.08-.73-.25-1.04s-.41-.56-.73-.74c-.32-.18-.69-.27-1.11-.27h-3.45v4.05Z"/><path class="cls-1" d="M142.91,89.69v-12.78h4c.12,0,.34,0,.66,0,.32,0,.63,.03,.93,.07,1,.12,1.84,.48,2.53,1.07,.68,.59,1.2,1.34,1.55,2.25,.35,.91,.52,1.9,.52,2.99s-.17,2.09-.52,3c-.35,.91-.87,1.66-1.55,2.25-.68,.59-1.53,.94-2.53,1.07-.3,.04-.61,.07-.93,.07-.32,0-.54,0-.66,0h-4Zm1.9-1.77h2.1c.2,0,.44,0,.72-.02s.52-.04,.74-.07c.65-.12,1.18-.41,1.58-.85,.41-.44,.7-.98,.89-1.63,.19-.65,.28-1.33,.28-2.06s-.1-1.45-.29-2.09c-.2-.64-.5-1.18-.9-1.62-.41-.44-.93-.71-1.57-.83-.21-.04-.46-.07-.74-.08-.28,0-.52-.01-.71-.01h-2.1v9.25Z"/><path class="cls-1" d="M155.9,89.69v-12.78h8.17v1.75h-6.31v3.59h5.25v1.75h-5.25v3.95h6.31v1.75h-8.17Z"/><path class="cls-1" d="M171.32,89.96c-.92,0-1.74-.16-2.48-.47-.74-.32-1.34-.77-1.82-1.36-.48-.59-.79-1.29-.93-2.1l1.94-.29c.2,.78,.6,1.39,1.22,1.83,.62,.43,1.35,.65,2.18,.65,.51,0,.99-.08,1.42-.24,.43-.16,.78-.4,1.04-.7,.26-.31,.39-.67,.39-1.1,0-.23-.04-.44-.12-.61-.08-.18-.19-.33-.33-.47-.14-.13-.31-.25-.51-.35s-.42-.18-.65-.25l-3.28-.97c-.32-.09-.65-.22-.98-.37-.33-.15-.64-.35-.91-.59s-.5-.55-.67-.91c-.17-.36-.26-.81-.26-1.33,0-.79,.2-1.45,.61-2,.41-.55,.95-.96,1.65-1.24,.69-.28,1.47-.42,2.33-.42,.86,.01,1.64,.17,2.32,.46,.68,.3,1.25,.72,1.7,1.28,.45,.55,.76,1.22,.94,2.01l-1.99,.34c-.09-.48-.28-.89-.57-1.24-.29-.35-.65-.61-1.07-.8-.42-.19-.88-.28-1.37-.29-.47-.01-.91,.06-1.3,.21-.39,.15-.71,.37-.94,.65-.23,.28-.35,.6-.35,.96s.1,.64,.31,.86c.21,.22,.46,.39,.77,.52s.61,.23,.91,.32l2.36,.67c.3,.08,.63,.19,1.01,.33,.38,.14,.74,.33,1.09,.58,.35,.25,.64,.58,.87,.99,.23,.41,.35,.93,.35,1.55s-.13,1.21-.39,1.7c-.26,.49-.62,.9-1.07,1.22-.45,.33-.98,.58-1.57,.74s-1.22,.25-1.87,.25Z"/><path class="cls-1" d="M179.02,89.69v-12.78h1.86v12.78h-1.86Z"/><path class="cls-1" d="M189.5,89.96c-.86,0-1.65-.15-2.37-.45-.72-.3-1.35-.74-1.88-1.31s-.95-1.27-1.24-2.09c-.3-.82-.44-1.76-.44-2.81,0-1.38,.25-2.56,.75-3.56s1.2-1.75,2.1-2.29c.89-.53,1.92-.8,3.09-.8,1.5,0,2.7,.35,3.6,1.05s1.51,1.66,1.83,2.89l-1.88,.34c-.26-.76-.68-1.37-1.26-1.83-.58-.46-1.31-.69-2.18-.69-.91,0-1.66,.2-2.26,.6s-1.05,.98-1.35,1.72c-.3,.74-.46,1.59-.46,2.57,0,.98,.14,1.83,.44,2.56s.76,1.3,1.36,1.71c.61,.41,1.36,.61,2.27,.62,.73,.01,1.35-.12,1.88-.4s.94-.69,1.25-1.24c.31-.54,.51-1.21,.59-2.01h-2.49v-1.49h4.46c.01,.11,.02,.25,.03,.42,0,.17,0,.29,0,.33,0,1.18-.23,2.24-.68,3.17-.46,.93-1.12,1.66-1.99,2.19-.87,.53-1.92,.79-3.16,.79Z"/><path class="cls-1" d="M197.83,89.69v-12.78h1.88l6.29,9.5v-9.5h1.88v12.78h-1.88l-6.29-9.51v9.51h-1.88Z"/><path class="cls-1" d="M214.5,89.69l4.53-12.78h1.27l4.53,12.78h-1.08l-4.35-12.25h.51l-4.32,12.25h-1.08Zm1.87-3.21v-.97h6.57v.97h-6.57Z"/><path class="cls-1" d="M227.15,89.69v-12.78h1.03l7.4,10.96v-10.96h1.03v12.78h-1.03l-7.4-10.98v10.98h-1.03Z"/><path class="cls-1" d="M239.83,89.69v-12.78h3.81c.15,0,.39,0,.72,0,.33,0,.65,.03,.95,.08,.96,.13,1.76,.49,2.39,1.08,.63,.59,1.11,1.33,1.42,2.24,.31,.9,.47,1.9,.47,2.99s-.16,2.09-.47,3c-.31,.9-.79,1.65-1.42,2.23-.63,.59-1.43,.94-2.39,1.08-.3,.04-.62,.07-.96,.08-.34,0-.58,.01-.71,.01h-3.81Zm1.07-1h2.73c.27,0,.54,0,.83-.02,.28-.02,.53-.04,.73-.08,.79-.14,1.43-.46,1.92-.95,.49-.49,.84-1.11,1.06-1.86,.22-.75,.33-1.58,.33-2.49s-.11-1.75-.34-2.5c-.23-.75-.58-1.37-1.07-1.86-.49-.49-1.12-.8-1.91-.94-.2-.03-.45-.06-.74-.08-.29-.01-.56-.02-.81-.02h-2.73v10.78Z"/><path class="cls-1" d="M256.58,89.69v-12.78h4c.12,0,.34,0,.66,0,.32,0,.63,.03,.93,.07,1,.12,1.84,.48,2.53,1.07,.68,.59,1.2,1.34,1.55,2.25,.35,.91,.52,1.9,.52,2.99s-.17,2.09-.52,3c-.35,.91-.87,1.66-1.55,2.25-.68,.59-1.53,.94-2.53,1.07-.3,.04-.61,.07-.93,.07-.32,0-.54,0-.66,0h-4Zm1.9-1.77h2.1c.2,0,.44,0,.72-.02s.52-.04,.74-.07c.65-.12,1.18-.41,1.58-.85,.41-.44,.7-.98,.89-1.63,.19-.65,.28-1.33,.28-2.06s-.1-1.45-.29-2.09c-.2-.64-.5-1.18-.9-1.62-.41-.44-.93-.71-1.57-.83-.21-.04-.46-.07-.74-.08-.28,0-.52-.01-.71-.01h-2.1v9.25Z"/><path class="cls-1" d="M269.74,89.69v-12.78h1.85v12.78h-1.85Z"/><path class="cls-1" d="M280.22,89.96c-.86,0-1.65-.15-2.37-.45-.72-.3-1.35-.74-1.88-1.31s-.95-1.27-1.24-2.09c-.3-.82-.44-1.76-.44-2.81,0-1.38,.25-2.56,.76-3.56,.5-.99,1.2-1.75,2.09-2.29,.89-.53,1.92-.8,3.09-.8,1.5,0,2.7,.35,3.6,1.05,.9,.7,1.51,1.66,1.83,2.89l-1.88,.34c-.26-.76-.68-1.37-1.26-1.83s-1.31-.69-2.18-.69c-.9,0-1.66,.2-2.26,.6s-1.05,.98-1.35,1.72c-.3,.74-.46,1.59-.46,2.57,0,.98,.14,1.83,.44,2.56,.3,.73,.76,1.3,1.36,1.71s1.36,.61,2.27,.62c.73,.01,1.35-.12,1.88-.4,.52-.28,.94-.69,1.25-1.24,.31-.54,.51-1.21,.59-2.01h-2.49v-1.49h4.46c.01,.11,.02,.25,.03,.42,0,.17,0,.29,0,.33,0,1.18-.23,2.24-.68,3.17-.46,.93-1.12,1.66-1.99,2.19s-1.92,.79-3.16,.79Z"/><path class="cls-1" d="M288.73,89.69v-12.78h1.86v12.78h-1.86Z"/><path class="cls-1" d="M297.17,89.69v-11.04h-4.25v-1.75h10.36v1.75h-4.25v11.04h-1.86Z"/><path class="cls-1" d="M304.18,89.69l4.16-12.78h2.67l4.16,12.78h-1.93l-3.83-11.66h.48l-3.78,11.66h-1.93Zm2.16-2.88v-1.74h6.68v1.74h-6.68Z"/><path class="cls-1" d="M317.67,89.69v-12.78h1.86v11.03h5.79v1.75h-7.64Z"/><path class="cls-1" d="M330.94,89.69v-12.78h1.68l4.63,9.61,4.61-9.61h1.7v12.77h-1.76v-8.74l-4.13,8.75h-.84l-4.14-8.75v8.75h-1.75Z"/><path class="cls-1" d="M345.88,89.69l4.16-12.78h2.67l4.16,12.78h-1.93l-3.83-11.66h.48l-3.78,11.66h-1.93Zm2.16-2.88v-1.74h6.68v1.74h-6.68Z"/><path class="cls-1" d="M359.19,89.69v-12.78h5.17c.12,0,.28,0,.46,.01,.18,0,.36,.03,.52,.06,.71,.11,1.3,.35,1.78,.73,.48,.37,.83,.84,1.07,1.41,.24,.57,.36,1.2,.36,1.88,0,1.02-.26,1.9-.78,2.63-.52,.74-1.3,1.2-2.34,1.38l-.76,.09h-3.62v4.59h-1.86Zm1.86-6.35h3.24c.12,0,.25,0,.4-.02,.15-.01,.28-.03,.41-.06,.38-.09,.68-.25,.91-.49,.23-.24,.4-.52,.5-.83s.15-.63,.15-.94-.05-.63-.15-.94-.27-.59-.5-.83c-.23-.24-.54-.4-.91-.49-.13-.04-.27-.06-.41-.07-.15-.01-.28-.02-.4-.02h-3.24v4.69Zm5.62,6.35l-2.52-5.2,1.87-.48,2.77,5.68h-2.12Z"/><path class="cls-1" d="M371.46,89.69v-12.78h1.86v5.97l5.35-5.97h2.31l-5.66,6.24,6.07,6.54h-2.38l-5.7-6.11v6.11h-1.86Z"/><path class="cls-1" d="M383.37,89.69v-12.78h8.17v1.75h-6.31v3.59h5.25v1.75h-5.25v3.95h6.31v1.75h-8.17Z"/><path class="cls-1" d="M397.58,89.69v-11.04h-4.25v-1.75h10.36v1.75h-4.25v11.04h-1.86Z"/><path class="cls-1" d="M406.02,89.69v-12.78h1.86v12.78h-1.86Z"/><path class="cls-1" d="M411.26,89.69v-12.78h1.88l6.3,9.5v-9.5h1.88v12.78h-1.88l-6.3-9.51v9.51h-1.88Z"/><path class="cls-1" d="M429.77,89.96c-.86,0-1.65-.15-2.37-.45-.72-.3-1.35-.74-1.88-1.31s-.95-1.27-1.24-2.09c-.3-.82-.44-1.76-.44-2.81,0-1.38,.25-2.56,.76-3.56,.5-.99,1.2-1.75,2.09-2.29,.89-.53,1.92-.8,3.09-.8,1.5,0,2.7,.35,3.6,1.05,.9,.7,1.51,1.66,1.83,2.89l-1.88,.34c-.26-.76-.68-1.37-1.26-1.83s-1.31-.69-2.18-.69c-.9,0-1.66,.2-2.26,.6s-1.05,.98-1.35,1.72c-.3,.74-.46,1.59-.46,2.57,0,.98,.14,1.83,.44,2.56,.3,.73,.76,1.3,1.36,1.71s1.36,.61,2.27,.62c.73,.01,1.35-.12,1.88-.4,.52-.28,.94-.69,1.25-1.24,.31-.54,.51-1.21,.59-2.01h-2.49v-1.49h4.46c.01,.11,.02,.25,.03,.42,0,.17,0,.29,0,.33,0,1.18-.23,2.24-.68,3.17-.46,.93-1.12,1.66-1.99,2.19s-1.92,.79-3.16,.79Z"/></g></g></g></svg>